<?xml version="1.0" encoding="UTF-8"?>
<svg xmlns="http://www.w3.org/2000/svg" version="1.1" xmlns:svg="http://www.w3.org/2000/svg" viewBox="0 0 32 32">
  <defs>
    <style>
      .cls-1 {
        fill: #fff;
      }
    </style>
  </defs>
  <!-- Generator: Adobe Illustrator 28.7.1, SVG Export Plug-In . SVG Version: 1.2.0 Build 142)  -->
  <g>
    <g id="Capa_1">
      <path class="cls-1" d="M15.8,1C7.5,1.1.9,7.9,1,16.2c.1,8.3,6.9,14.9,15.2,14.8,8.3-.1,14.9-6.9,14.8-15.2-.1-8.3-6.9-14.9-15.2-14.8ZM26.2,14.7l-5.3,3.9,2,6.3c.3.9-.8,1.7-1.6,1.1l-5.4-3.8-5.4,3.8c-.8.6-1.9-.2-1.6-1.1l2-6.3-5.3-3.9c-.8-.6-.4-1.8.6-1.8h6.6c0,0,2.1-6.3,2.1-6.3.3-.9,1.6-.9,1.9,0l2.1,6.2h6.6c1,0,1.4,1.3.6,1.9Z"/>
    </g>
  </g>
</svg>